<mxfile host="app.diagrams.net" modified="2020-10-19T08:32:53.856Z" agent="5.0 (Macintosh; Intel Mac OS X 10_13_6) AppleWebKit/537.36 (KHTML, like Gecko) Chrome/85.0.4183.121 Safari/537.36" etag="QarnYpRmwYmjjTleBMCT" version="13.8.0" type="github">
  <diagram id="k_yRpn7Xuef7h11wH7Zj" name="Page-1">
    <mxGraphModel dx="733" dy="530" grid="1" gridSize="10" guides="1" tooltips="1" connect="1" arrows="1" fold="1" page="1" pageScale="1" pageWidth="827" pageHeight="1169" math="0" shadow="0">
      <root>
        <mxCell id="0" />
        <mxCell id="1" parent="0" />
        <mxCell id="WxcKP5KGB_8PCQVD8CTg-5" value="" style="edgeStyle=orthogonalEdgeStyle;rounded=0;orthogonalLoop=1;jettySize=auto;html=1;" edge="1" parent="1" source="WxcKP5KGB_8PCQVD8CTg-3" target="WxcKP5KGB_8PCQVD8CTg-4">
          <mxGeometry relative="1" as="geometry" />
        </mxCell>
        <mxCell id="WxcKP5KGB_8PCQVD8CTg-3" value="START" style="ellipse;whiteSpace=wrap;html=1;fillColor=#d5e8d4;strokeColor=#82b366;" vertex="1" parent="1">
          <mxGeometry x="350" y="450" width="120" height="80" as="geometry" />
        </mxCell>
        <mxCell id="WxcKP5KGB_8PCQVD8CTg-7" value="" style="edgeStyle=orthogonalEdgeStyle;rounded=0;orthogonalLoop=1;jettySize=auto;html=1;" edge="1" parent="1" source="WxcKP5KGB_8PCQVD8CTg-4" target="WxcKP5KGB_8PCQVD8CTg-6">
          <mxGeometry relative="1" as="geometry" />
        </mxCell>
        <mxCell id="WxcKP5KGB_8PCQVD8CTg-4" value="Create &quot;multi&quot; array" style="whiteSpace=wrap;html=1;fillColor=#dae8fc;strokeColor=#6c8ebf;" vertex="1" parent="1">
          <mxGeometry x="350" y="620" width="120" height="60" as="geometry" />
        </mxCell>
        <mxCell id="WxcKP5KGB_8PCQVD8CTg-9" value="" style="edgeStyle=orthogonalEdgeStyle;rounded=0;orthogonalLoop=1;jettySize=auto;html=1;" edge="1" parent="1" source="WxcKP5KGB_8PCQVD8CTg-6" target="WxcKP5KGB_8PCQVD8CTg-8">
          <mxGeometry relative="1" as="geometry" />
        </mxCell>
        <mxCell id="WxcKP5KGB_8PCQVD8CTg-6" value="Loop through multi:&lt;br&gt;for species in multi" style="whiteSpace=wrap;html=1;fillColor=#dae8fc;strokeColor=#6c8ebf;" vertex="1" parent="1">
          <mxGeometry x="350" y="760" width="120" height="60" as="geometry" />
        </mxCell>
        <mxCell id="WxcKP5KGB_8PCQVD8CTg-11" value="" style="edgeStyle=orthogonalEdgeStyle;rounded=0;orthogonalLoop=1;jettySize=auto;html=1;" edge="1" parent="1" source="WxcKP5KGB_8PCQVD8CTg-8" target="WxcKP5KGB_8PCQVD8CTg-10">
          <mxGeometry relative="1" as="geometry" />
        </mxCell>
        <mxCell id="WxcKP5KGB_8PCQVD8CTg-8" value="print species[i]" style="whiteSpace=wrap;html=1;fillColor=#fff2cc;strokeColor=#d6b656;" vertex="1" parent="1">
          <mxGeometry x="350" y="900" width="120" height="60" as="geometry" />
        </mxCell>
        <mxCell id="WxcKP5KGB_8PCQVD8CTg-13" value="" style="edgeStyle=orthogonalEdgeStyle;rounded=0;orthogonalLoop=1;jettySize=auto;html=1;" edge="1" parent="1" source="WxcKP5KGB_8PCQVD8CTg-10" target="WxcKP5KGB_8PCQVD8CTg-12">
          <mxGeometry relative="1" as="geometry" />
        </mxCell>
        <mxCell id="WxcKP5KGB_8PCQVD8CTg-10" value="Has last item been reached?" style="rhombus;whiteSpace=wrap;html=1;fillColor=#e1d5e7;strokeColor=#9673a6;" vertex="1" parent="1">
          <mxGeometry x="360" y="1030" width="100" height="90" as="geometry" />
        </mxCell>
        <mxCell id="WxcKP5KGB_8PCQVD8CTg-12" value="STOP" style="ellipse;whiteSpace=wrap;html=1;fillColor=#f8cecc;strokeColor=#b85450;" vertex="1" parent="1">
          <mxGeometry x="350" y="1190" width="120" height="80" as="geometry" />
        </mxCell>
        <mxCell id="WxcKP5KGB_8PCQVD8CTg-14" value="" style="endArrow=classic;html=1;exitX=0;exitY=0.5;exitDx=0;exitDy=0;" edge="1" parent="1" source="WxcKP5KGB_8PCQVD8CTg-10" target="WxcKP5KGB_8PCQVD8CTg-17">
          <mxGeometry width="50" height="50" relative="1" as="geometry">
            <mxPoint x="140" y="1080" as="sourcePoint" />
            <mxPoint x="200" y="980" as="targetPoint" />
            <Array as="points">
              <mxPoint x="200" y="1075" />
            </Array>
          </mxGeometry>
        </mxCell>
        <mxCell id="WxcKP5KGB_8PCQVD8CTg-16" value="NO&lt;br&gt;" style="text;html=1;align=center;verticalAlign=middle;resizable=0;points=[];autosize=1;" vertex="1" parent="1">
          <mxGeometry x="245" y="1040" width="30" height="20" as="geometry" />
        </mxCell>
        <mxCell id="WxcKP5KGB_8PCQVD8CTg-17" value="i = i + 1" style="rounded=0;whiteSpace=wrap;html=1;fillColor=#fff2cc;strokeColor=#d6b656;" vertex="1" parent="1">
          <mxGeometry x="140" y="960" width="120" height="60" as="geometry" />
        </mxCell>
        <mxCell id="WxcKP5KGB_8PCQVD8CTg-18" value="" style="endArrow=classic;html=1;entryX=-0.025;entryY=0.367;entryDx=0;entryDy=0;entryPerimeter=0;" edge="1" parent="1" target="WxcKP5KGB_8PCQVD8CTg-8">
          <mxGeometry width="50" height="50" relative="1" as="geometry">
            <mxPoint x="200" y="960" as="sourcePoint" />
            <mxPoint x="250" y="910" as="targetPoint" />
            <Array as="points">
              <mxPoint x="200" y="920" />
            </Array>
          </mxGeometry>
        </mxCell>
        <mxCell id="WxcKP5KGB_8PCQVD8CTg-19" value="YES" style="text;html=1;align=center;verticalAlign=middle;resizable=0;points=[];autosize=1;" vertex="1" parent="1">
          <mxGeometry x="430" y="1140" width="40" height="20" as="geometry" />
        </mxCell>
      </root>
    </mxGraphModel>
  </diagram>
</mxfile>
